<svg xmlns="http://www.w3.org/2000/svg" xmlns:xlink="http://www.w3.org/1999/xlink" width="1080" zoomAndPan="magnify" viewBox="0 0 810 809.999993" height="1080" preserveAspectRatio="xMidYMid meet" version="1.0"><defs><clipPath id="814dd9837b"><path d="M 88 118 L 722.988281 118 L 722.988281 693.90625 L 88 693.90625 Z M 88 118 " clip-rule="nonzero"/></clipPath></defs><g clip-path="url(#814dd9837b)"><path fill="#000000" d="M 709.828125 592.445312 C 709.828125 592.84375 710.09375 593.375 709.960938 593.640625 C 704.375 603.21875 698.925781 612.929688 693.078125 622.375 C 691.347656 625.035156 688.820312 627.164062 686.695312 629.558594 C 686.695312 629.558594 686.828125 629.421875 686.828125 629.421875 L 675.925781 643.125 C 678.851562 638.070312 681.910156 633.148438 686.695312 629.558594 Z M 720.863281 548.28125 C 722.058594 553.070312 721.792969 557.992188 719.929688 562.648438 C 720.195312 557.992188 720.460938 553.203125 720.730469 548.546875 C 720.730469 548.546875 720.730469 548.546875 720.730469 548.679688 L 721.925781 528.730469 C 720.996094 525.800781 719.929688 522.875 718.867188 519.550781 C 715.675781 530.058594 712.484375 539.769531 709.695312 549.613281 C 705.707031 563.3125 700.253906 576.617188 693.742188 589.386719 C 690.949219 594.839844 688.554688 600.425781 685.234375 605.480469 C 677.921875 616.386719 667.816406 624.636719 657.316406 632.617188 C 651.597656 637.003906 645.21875 640.332031 638.570312 642.726562 C 633.386719 644.589844 628.597656 646.980469 623.546875 649.242188 C 617.296875 652.171875 611.050781 655.097656 604.800781 658.023438 C 602.277344 659.21875 599.882812 660.550781 597.492188 661.746094 C 604.136719 663.078125 610.519531 662.945312 616.632812 663.875 C 628.996094 665.605469 641.496094 664.40625 653.328125 660.285156 C 651.464844 661.480469 649.738281 663.34375 647.609375 664.007812 C 628.597656 668.929688 609.324219 672.390625 589.78125 672.65625 C 586.191406 672.65625 582.734375 673.585938 579.542969 675.050781 C 571.699219 678.773438 563.988281 682.898438 555.878906 685.425781 C 547.371094 687.953125 538.730469 689.8125 530.089844 691.011719 C 523.042969 692.207031 515.863281 692.339844 508.683594 692.875 C 497.78125 693.539062 486.75 692.875 475.980469 691.144531 C 459.496094 688.484375 442.878906 688.085938 426.257812 689.945312 C 418.816406 690.878906 411.238281 689.8125 403.660156 689.28125 C 396.480469 688.75 389.433594 687.019531 382.386719 687.152344 C 366.167969 687.417969 352.875 681.167969 341.175781 670.792969 C 330.007812 660.816406 319.375 650.308594 308.871094 639.933594 C 305.8125 636.738281 303.019531 633.28125 300.628906 629.558594 C 285.738281 607.875 267.925781 588.984375 248.914062 571.027344 C 241.335938 563.84375 232.03125 558.523438 223.652344 552.273438 C 208.234375 540.964844 192.8125 529.660156 177.65625 517.953125 C 173.667969 514.496094 170.210938 510.636719 167.285156 506.117188 C 156.785156 491.085938 146.679688 475.921875 136.3125 460.757812 C 129.664062 451.046875 123.148438 441.203125 119.160156 430.027344 C 115.703125 420.585938 111.183594 411.539062 105.601562 403.027344 C 104.539062 401.03125 103.472656 399.035156 102.675781 396.90625 L 108.527344 403.558594 C 108.125 400.765625 107.992188 399.167969 107.726562 397.574219 C 105.867188 387.0625 103.871094 376.554688 102.410156 365.914062 C 100.949219 356.070312 100.816406 346.09375 105.867188 337.050781 C 113.710938 322.949219 121.953125 308.980469 133.652344 297.542969 C 135.113281 295.945312 136.3125 294.21875 137.507812 292.488281 C 132.324219 292.222656 127.136719 294.21875 123.546875 298.074219 C 118.363281 303.261719 113.179688 308.449219 108.257812 313.902344 C 97.757812 325.476562 90.445312 338.644531 89.117188 354.609375 C 86.988281 351.546875 88.449219 348.488281 89.117188 345.5625 C 90.445312 338.910156 93.105469 332.660156 96.960938 327.074219 C 103.207031 318.425781 109.324219 309.648438 116.367188 301.667969 C 123.148438 293.953125 132.054688 288.628906 142.027344 286.371094 C 146.679688 285.304688 148.808594 281.3125 151.066406 277.988281 C 162.765625 259.898438 179.914062 248.324219 197.863281 237.550781 C 202.515625 234.757812 207.433594 232.097656 212.089844 229.4375 C 220.464844 224.25 229.503906 219.992188 238.808594 216.800781 C 244.527344 214.9375 249.976562 211.878906 255.425781 209.21875 C 262.738281 205.625 269.917969 201.636719 277.496094 198.445312 C 293.449219 191.792969 309.269531 185.007812 324.292969 176.363281 C 335.59375 169.84375 347.691406 164.789062 358.855469 158.007812 C 370.6875 150.691406 383.1875 144.570312 396.214844 139.648438 C 403.527344 137.121094 411.105469 134.996094 418.683594 133.398438 C 424.664062 132.066406 430.515625 130.605469 435.832031 127.410156 C 441.8125 123.820312 448.59375 123.15625 455.375 123.289062 C 462.152344 123.554688 468.800781 123.953125 475.582031 124.484375 C 487.015625 125.285156 498.183594 123.289062 509.347656 121.027344 C 527.296875 117.4375 545.242188 116.769531 563.058594 122.089844 C 564.121094 122.355469 565.050781 122.492188 566.117188 122.625 C 592.4375 123.820312 617.433594 131.003906 641.894531 140.316406 C 650.535156 143.773438 658.777344 147.898438 666.488281 152.953125 C 671.40625 156.011719 676.589844 160 679.117188 164.921875 C 686.5625 179.6875 696.664062 193.789062 692.945312 212.011719 C 692.410156 214.539062 693.742188 217.863281 695.070312 220.257812 C 698.660156 226.644531 702.78125 232.761719 706.503906 239.148438 C 708.496094 242.605469 708.628906 245.929688 707.964844 250.1875 C 706.636719 259.898438 702.78125 269.210938 696.800781 277.058594 C 692.542969 282.511719 691.347656 289.164062 690.417969 295.945312 C 689.089844 305.921875 688.6875 316.03125 688.957031 326.140625 C 689.222656 336.648438 688.957031 347.160156 688.023438 357.667969 C 687.359375 368.441406 688.6875 379.214844 692.011719 389.457031 C 695.070312 399.566406 697.066406 409.808594 699.191406 420.1875 C 701.453125 430.828125 704.507812 441.46875 708.230469 451.710938 C 713.019531 464.878906 715.277344 478.582031 717.40625 492.28125 C 718.46875 498.535156 719.664062 504.652344 718.734375 511.039062 C 718.46875 513.433594 719.664062 515.960938 720.0625 518.351562 C 720.730469 521.8125 721.128906 525.136719 721.792969 528.597656 L 721.792969 528.460938 C 722.988281 535.113281 722.589844 541.898438 720.863281 548.28125 Z M 572.496094 125.550781 C 573.027344 125.816406 573.558594 126.214844 574.09375 126.347656 C 588.449219 132.332031 603.074219 137.65625 616.898438 144.570312 C 630.0625 151.089844 642.558594 158.9375 655.054688 166.652344 C 661.4375 170.644531 667.285156 175.433594 673.402344 179.953125 C 677.789062 183.28125 681.113281 187.800781 682.707031 193.125 C 683.902344 196.582031 685.234375 199.773438 686.5625 203.234375 L 688.023438 202.699219 C 687.09375 199.90625 686.296875 197.113281 685.234375 194.453125 C 679.25 177.824219 670.078125 163.195312 656.648438 151.488281 C 651.863281 147.097656 646.28125 143.773438 640.296875 141.246094 C 623.414062 134.59375 605.867188 130.472656 588.316406 126.480469 C 583.265625 125.285156 577.949219 124.886719 572.894531 124.21875 Z M 148.007812 285.703125 C 155.71875 284.773438 162.101562 284.242188 168.484375 283.042969 C 177.523438 281.316406 186.5625 278.253906 195.601562 277.457031 C 212.753906 275.992188 230.035156 275.726562 247.316406 275.328125 C 261.277344 275.0625 274.835938 271.203125 286.800781 263.890625 C 291.722656 260.695312 297.039062 258.035156 302.621094 256.039062 C 310.730469 253.511719 318.308594 249.921875 325.222656 245.132812 C 338.914062 235.289062 352.476562 225.445312 366.300781 215.738281 C 377.203125 208.019531 387.308594 199.90625 393.15625 187.136719 C 396.878906 179.421875 403.128906 173.304688 410.707031 169.578125 C 423.335938 163.328125 435.964844 157.074219 448.859375 151.355469 C 459.628906 146.433594 470.398438 141.910156 481.429688 137.789062 C 492.464844 133.664062 503.101562 129.40625 514.269531 127.011719 C 525.433594 124.484375 536.867188 124.351562 548.167969 123.15625 C 549.765625 123.023438 551.226562 122.757812 552.6875 122.492188 C 551.359375 121.425781 549.628906 120.894531 547.902344 120.761719 C 536.203125 119.5625 524.238281 120.097656 512.671875 122.222656 C 500.441406 124.617188 488.34375 127.277344 475.714844 126.214844 C 469.996094 125.816406 464.414062 125.417969 458.699219 125.152344 C 449.921875 124.617188 441.546875 125.683594 433.835938 130.339844 C 430.113281 132.601562 425.59375 133.398438 421.339844 134.59375 C 413.628906 136.722656 405.652344 138.054688 398.207031 140.714844 C 385.179688 145.371094 372.550781 151.488281 360.851562 158.804688 C 349.949219 165.589844 337.984375 170.511719 326.949219 176.894531 C 311.664062 185.808594 295.445312 192.855469 279.089844 199.773438 C 270.980469 203.101562 263.269531 207.488281 255.292969 211.347656 C 250.109375 214.007812 244.660156 216.402344 239.207031 218.53125 C 230.300781 221.589844 221.660156 225.710938 213.550781 230.632812 C 209.5625 233.027344 205.574219 235.289062 201.585938 237.550781 C 180.449219 249.257812 161.4375 262.957031 148.007812 285.703125 Z M 716.605469 506.78125 C 715.941406 498 714.082031 489.488281 712.753906 480.710938 C 713.152344 479.378906 713.285156 478.046875 713.285156 476.585938 C 711.820312 470.066406 710.359375 463.417969 708.496094 457.03125 C 705.042969 445.058594 699.855469 433.753906 697.730469 421.382812 C 696.398438 412.871094 694.671875 404.355469 692.410156 396.109375 C 688.023438 381.210938 684.96875 366.3125 687.492188 350.75 C 687.757812 347.824219 687.890625 344.898438 687.890625 341.972656 C 688.421875 326.273438 686.164062 310.445312 689.089844 294.75 C 690.816406 285.4375 693.476562 276.925781 699.855469 269.742188 C 702.78125 266.417969 704.910156 262.558594 704.910156 257.769531 C 704.640625 256.175781 704.773438 254.445312 705.308594 252.847656 C 708.363281 246.066406 705.972656 240.476562 702.117188 234.890625 C 700.121094 231.964844 698.394531 228.773438 696.398438 225.847656 C 695.335938 224.515625 694.273438 223.320312 693.210938 222.253906 C 692.945312 225.179688 692.945312 227.042969 692.808594 228.90625 C 692.011719 238.882812 691.347656 248.992188 690.285156 259.101562 C 689.488281 267.082031 688.15625 274.929688 686.429688 282.777344 C 684.300781 291.558594 680.980469 300.070312 678.71875 308.714844 C 677.125 315.234375 676.058594 321.886719 675.394531 328.535156 C 674.066406 340.90625 673.269531 353.277344 672.203125 365.648438 C 671.9375 367.511719 671.804688 369.371094 672.070312 371.234375 C 674.199219 380.28125 676.191406 389.324219 678.984375 398.105469 C 681.511719 405.953125 684.832031 413.402344 687.890625 421.117188 C 690.683594 428.832031 694.273438 436.28125 698.527344 443.199219 C 704.242188 452.375 707.035156 462.617188 709.164062 473.128906 C 708.230469 472.0625 707.300781 470.867188 706.503906 469.667969 C 700.121094 458.761719 694.273438 447.585938 687.359375 437.078125 C 680.046875 425.773438 676.589844 413.003906 671.007812 400.898438 C 670.476562 399.566406 670.210938 398.105469 670.078125 396.640625 C 669.679688 393.980469 669.148438 391.320312 668.480469 388.660156 C 667.417969 384.804688 667.285156 380.8125 668.082031 376.820312 C 668.878906 371.5 669.414062 366.046875 669.414062 360.59375 C 669.414062 349.019531 668.878906 337.449219 668.746094 325.875 C 668.613281 316.964844 670.742188 308.183594 674.730469 300.335938 C 675.261719 299.273438 675.792969 298.074219 676.324219 296.878906 C 680.445312 288.097656 682.972656 278.652344 683.769531 269.078125 C 685.367188 252.582031 687.226562 236.089844 688.820312 219.460938 C 689.089844 216.933594 688.820312 214.40625 688.023438 212.011719 C 685.898438 205.359375 683.371094 198.976562 680.445312 192.589844 C 678.585938 188.601562 676.058594 185.007812 672.867188 181.949219 C 667.550781 177.160156 661.835938 172.769531 655.71875 169.046875 C 633.519531 155.480469 610.917969 142.175781 586.457031 133.132812 C 558.539062 122.757812 569.171875 122.757812 539.128906 128.078125 C 537.53125 128.34375 535.539062 128.875 534.210938 128.210938 C 529.820312 126.214844 525.433594 127.144531 521.179688 127.8125 C 508.683594 129.539062 497.25 134.460938 485.949219 139.515625 C 472.65625 145.503906 459.363281 151.355469 446.199219 157.339844 C 442.746094 158.804688 439.421875 160.667969 436.230469 162.796875 C 429.183594 167.714844 422.539062 173.304688 415.492188 178.226562 C 404.855469 185.542969 394.886719 193.523438 387.042969 203.898438 C 379.066406 214.539062 368.960938 222.386719 357.660156 229.171875 C 340.910156 239.148438 324.425781 249.921875 308.074219 260.5625 C 302.753906 264.023438 297.039062 266.683594 291.054688 268.542969 C 285.871094 270.007812 280.820312 272.402344 275.636719 274 C 268.855469 275.992188 261.941406 278.785156 255.027344 279.320312 C 239.339844 280.515625 223.519531 280.382812 207.699219 281.046875 C 203.445312 281.179688 199.324219 281.714844 195.203125 282.777344 C 178.71875 287.167969 162.234375 291.289062 144.953125 291.691406 C 142.957031 291.824219 140.964844 292.621094 139.5 294.085938 C 130.328125 303.660156 121.15625 313.105469 115.039062 325.210938 C 113.84375 327.472656 112.515625 329.601562 111.050781 331.59375 C 103.605469 341.703125 102.011719 353.277344 103.871094 365.25 C 105.601562 376.6875 107.59375 388.128906 109.722656 399.433594 C 111.183594 407.148438 113.710938 414.464844 118.894531 420.585938 C 121.289062 423.777344 123.414062 427.101562 125.277344 430.5625 L 119.027344 424.308594 C 119.824219 426.703125 120.222656 428.167969 120.757812 429.628906 C 124.746094 440.136719 130.726562 449.582031 136.976562 458.761719 C 147.609375 474.457031 158.113281 490.152344 169.015625 505.582031 C 171.9375 509.972656 175.394531 513.964844 179.515625 517.289062 C 194.671875 528.996094 210.226562 540.167969 225.648438 551.476562 C 233.890625 557.59375 243.195312 562.648438 250.507812 569.832031 C 267.125 585.792969 283.210938 602.554688 296.90625 621.308594 C 301.027344 626.894531 304.484375 633.148438 309.402344 637.9375 C 320.96875 649.507812 332.800781 660.949219 345.164062 671.589844 C 355.269531 680.238281 367.101562 685.292969 380.925781 685.292969 C 388.636719 685.292969 396.347656 687.019531 404.191406 687.554688 C 411.769531 688.085938 419.347656 689.015625 426.792969 688.085938 C 441.414062 686.355469 456.304688 686.488281 470.796875 688.75 C 487.015625 691.277344 503.5 691.808594 519.851562 690.347656 C 537.933594 688.75 555.214844 685.292969 571.433594 677.042969 C 573.828125 675.847656 576.21875 674.78125 578.480469 673.585938 L 578.214844 672.121094 C 572.761719 672.523438 567.179688 672.789062 561.59375 673.453125 C 548.035156 675.316406 534.609375 677.710938 521.046875 679.171875 C 509.347656 680.371094 497.515625 680.636719 485.816406 681.035156 C 459.230469 681.832031 432.640625 684.359375 405.785156 681.832031 C 390.898438 680.371094 377.46875 675.582031 364.308594 669.863281 C 351.148438 664.140625 339.183594 655.363281 328.28125 645.785156 C 315.519531 634.476562 306.609375 620.113281 296.640625 606.675781 C 289.59375 597.101562 284.410156 586.058594 277.894531 575.949219 C 273.507812 569.167969 268.855469 562.117188 263.136719 556.53125 C 254.230469 547.882812 243.195312 542.03125 233.890625 533.652344 C 225.914062 526.46875 216.34375 520.746094 206.902344 515.425781 C 197.199219 509.972656 189.621094 503.054688 184.4375 493.210938 C 182.839844 490.285156 180.847656 487.492188 178.453125 485.230469 C 164.628906 472.0625 150.535156 459.292969 136.976562 445.859375 C 132.589844 441.335938 129.53125 435.484375 125.808594 430.296875 C 126.738281 431.09375 127.667969 432.023438 128.464844 432.957031 C 135.777344 444.394531 146.414062 452.910156 155.851562 462.351562 C 176.726562 483.238281 200.390625 500.660156 222.855469 519.550781 C 237.480469 531.789062 253.832031 541.765625 266.992188 555.996094 C 273.507812 563.179688 279.488281 570.628906 284.941406 578.609375 C 291.589844 588.054688 297.835938 597.765625 304.617188 607.210938 C 307.410156 610.933594 310.464844 614.394531 313.921875 617.453125 C 322.429688 625.433594 331.203125 633.28125 339.980469 641.128906 C 341.175781 642.058594 342.371094 642.859375 343.570312 643.65625 C 353.9375 650.574219 365.636719 654.832031 377.203125 659.21875 C 389.300781 663.742188 402.0625 665.207031 414.558594 668.265625 C 429.847656 671.855469 445.402344 674.78125 461.089844 676.644531 C 468.402344 677.578125 475.449219 679.039062 482.761719 676.511719 C 486.351562 675.316406 490.738281 675.847656 494.726562 675.449219 C 496.585938 675.316406 498.449219 675.183594 500.308594 674.78125 C 509.746094 672.65625 519.1875 670.394531 528.625 668.265625 C 542.453125 665.207031 556.277344 662.945312 570.503906 663.609375 C 574.890625 663.742188 579.277344 663.609375 583.796875 663.742188 C 588.449219 663.875 592.835938 663.210938 596.957031 660.285156 C 599.75 658.289062 603.339844 657.222656 606.664062 655.761719 C 611.847656 653.367188 616.898438 650.839844 621.953125 648.445312 C 627.667969 645.785156 633.519531 643.257812 639.234375 640.730469 C 643.621094 638.734375 648.40625 637.273438 652.261719 634.476562 C 659.574219 629.15625 666.621094 623.570312 673.402344 617.453125 C 679.78125 611.867188 684.964844 605.082031 688.6875 597.5 C 692.144531 590.582031 695.335938 583.398438 698.527344 576.347656 C 700.253906 572.757812 701.71875 569.035156 703.046875 565.308594 C 706.238281 555.730469 708.894531 546.019531 712.484375 536.578125 C 715.941406 527 717.40625 516.890625 716.605469 506.78125 Z M 714.214844 579.941406 C 717.40625 574.488281 719.796875 568.765625 719.929688 562.382812 Z M 91.640625 370.703125 C 90.710938 374.027344 92.171875 376.6875 94.300781 379.082031 Z M 91.375 369.90625 C 90.710938 367.378906 90.046875 364.71875 89.25 362.058594 C 87.917969 365.25 88.71875 367.910156 91.375 369.90625 Z M 712.085938 587.390625 L 714.214844 579.675781 C 713.417969 582.070312 710.359375 584.066406 712.085938 587.390625 Z M 712.617188 480.84375 C 711.421875 478.183594 710.226562 475.386719 709.03125 472.726562 C 709.429688 475.789062 709.695312 478.847656 712.617188 480.84375 Z M 712.617188 480.84375 " fill-opacity="1" fill-rule="nonzero"/></g></svg>