<svg xmlns="http://www.w3.org/2000/svg" xmlns:xlink="http://www.w3.org/1999/xlink" width="1080" zoomAndPan="magnify" viewBox="0 0 810 809.999993" height="1080" preserveAspectRatio="xMidYMid meet" version="1.0"><defs><clipPath id="1cdc49a0cc"><path d="M 50 421 L 737 421 L 737 482.777344 L 50 482.777344 Z M 50 421 " clip-rule="nonzero"/></clipPath></defs><g clip-path="url(#1cdc49a0cc)"><path fill="#000000" d="M 689.386719 465.066406 C 689.386719 465.066406 688.589844 464.964844 687.796875 464.867188 C 676.769531 463.671875 665.746094 462.078125 655.117188 458.894531 C 653.328125 458.398438 651.539062 457.898438 649.75 457.5 C 642.5 455.910156 635.546875 453.421875 628.792969 450.335938 C 622.734375 447.648438 616.773438 444.863281 610.8125 442.074219 C 608.925781 441.179688 606.941406 440.285156 605.351562 438.890625 C 603.164062 437.101562 600.683594 436.203125 598.101562 435.90625 C 588.367188 434.613281 578.628906 434.113281 568.894531 436.105469 C 564.722656 437 560.75 438.195312 556.679688 439.386719 C 553.402344 440.382812 550.320312 441.777344 547.738281 444.363281 C 546.449219 445.660156 544.757812 446.652344 543.167969 447.449219 C 535.023438 451.929688 527.375 457.101562 520.027344 462.777344 C 515.65625 466.160156 510.886719 469.046875 506.117188 471.832031 C 500.359375 475.214844 493.800781 476.609375 487.542969 478.5 C 482.875 479.894531 478.207031 480.191406 473.4375 480.191406 C 471.550781 480.191406 469.765625 479.992188 467.875 479.695312 C 462.414062 478.796875 456.949219 477.703125 451.488281 476.808594 C 448.804688 476.308594 446.421875 475.515625 444.234375 473.824219 C 443.144531 473.027344 442.050781 472.328125 440.859375 471.730469 C 435.691406 469.542969 430.824219 466.855469 426.457031 463.371094 C 425.660156 462.675781 424.667969 462.277344 423.675781 461.78125 C 416.917969 458.199219 410.164062 454.613281 403.410156 450.933594 C 399.933594 449.042969 396.457031 447.050781 393.476562 444.363281 C 390.695312 441.875 387.320312 440.285156 383.84375 438.992188 C 378.675781 437.101562 373.414062 436.902344 368.246094 438.492188 C 364.273438 439.785156 360.300781 441.28125 356.625 443.46875 C 354.339844 444.863281 352.253906 446.355469 350.269531 448.246094 C 345.699219 452.625 340.734375 456.703125 337.257812 462.078125 C 336.859375 462.777344 336.261719 463.371094 335.667969 463.769531 C 329.109375 468.746094 323.152344 474.417969 315.105469 477.007812 C 313.8125 477.40625 312.722656 478.101562 311.527344 478.796875 C 308.945312 480.191406 306.164062 480.886719 303.183594 481.285156 C 299.808594 481.683594 296.332031 482.183594 292.953125 482.480469 C 291.363281 482.679688 289.777344 482.777344 288.1875 482.679688 C 282.625 482.480469 277.0625 482.480469 271.699219 481.1875 C 264.746094 479.496094 257.792969 478.101562 251.136719 475.214844 C 245.078125 472.429688 239.414062 469.046875 234.546875 464.46875 C 229.28125 459.589844 223.621094 455.3125 218.257812 450.535156 C 215.078125 447.75 212 444.863281 209.019531 441.777344 C 203.359375 435.90625 196.503906 432.023438 188.0625 431.925781 C 185.378906 431.925781 182.796875 431.824219 180.113281 431.625 C 174.75 431.226562 169.585938 432.324219 164.417969 433.515625 C 162.632812 433.914062 160.84375 434.710938 159.453125 435.804688 C 155.480469 438.792969 151.011719 441.28125 148.128906 445.558594 C 147.730469 446.15625 147.035156 446.753906 146.441406 447.152344 C 142.167969 450.234375 137.699219 453.121094 133.527344 456.308594 C 130.347656 458.695312 126.675781 460.289062 123.894531 463.273438 C 118.828125 466.160156 113.960938 469.246094 108.398438 471.234375 C 104.621094 472.527344 100.945312 473.824219 97.273438 475.214844 C 91.015625 477.605469 84.457031 478.199219 77.703125 477.703125 C 76.414062 477.605469 75.023438 477.40625 73.929688 476.707031 C 68.960938 474.019531 63.597656 472.726562 58.335938 470.835938 C 54.0625 469.34375 51.578125 465.960938 50.1875 461.78125 C 50.089844 461.382812 50.386719 460.6875 50.6875 460.386719 C 50.984375 460.089844 51.679688 459.789062 52.078125 459.890625 C 52.773438 460.089844 53.367188 460.6875 54.0625 461.082031 C 55.453125 461.878906 56.746094 462.976562 58.136719 463.472656 C 63.203125 465.066406 68.265625 466.558594 73.53125 466.957031 C 83.464844 467.851562 93 466.058594 102.238281 462.378906 C 104.226562 461.582031 106.210938 460.882812 108.097656 459.988281 C 112.269531 458.199219 116.144531 456.007812 119.722656 453.222656 C 130.347656 444.960938 141.773438 437.695312 153.195312 430.433594 C 159.355469 426.550781 166.007812 424.0625 172.960938 422.667969 C 174.75 422.269531 176.636719 422.269531 178.523438 422.269531 C 180.910156 422.269531 183.292969 422.667969 185.675781 422.46875 C 193.523438 422.074219 199.980469 425.457031 206.238281 429.734375 C 207.53125 430.632812 208.820312 431.527344 210.011719 432.722656 C 217.164062 439.886719 225.507812 445.460938 233.355469 451.828125 C 236.039062 452.523438 237.429688 455.113281 239.515625 456.605469 C 244.777344 460.089844 250.441406 463.074219 256.597656 464.867188 C 261.367188 466.257812 266.332031 467.253906 271.199219 468.546875 C 278.453125 470.636719 285.902344 470.339844 293.253906 469.640625 C 306.265625 468.347656 317.789062 463.273438 328.21875 455.710938 C 332.089844 452.921875 335.46875 449.539062 339.042969 446.355469 C 340.039062 445.460938 341.03125 444.5625 341.925781 443.667969 C 348.382812 437.398438 356.328125 433.914062 364.769531 431.527344 C 370.234375 429.933594 375.695312 430.132812 381.160156 431.925781 C 386.226562 433.617188 391.09375 435.707031 395.265625 438.992188 C 397.949219 441.179688 400.925781 442.871094 404.105469 444.265625 C 406.292969 445.261719 408.378906 446.355469 410.464844 447.550781 C 414.136719 449.640625 417.8125 451.628906 421.984375 452.921875 C 423.773438 453.421875 425.5625 454.117188 427.050781 455.210938 C 432.117188 458.792969 437.976562 460.585938 443.539062 462.875 C 446.222656 463.96875 449.101562 464.46875 451.984375 464.964844 C 455.660156 465.660156 459.335938 466.058594 463.007812 466.558594 C 469.367188 467.253906 475.722656 466.558594 481.78125 464.566406 C 488.339844 462.476562 494.796875 460.089844 501.054688 457.101562 C 507.113281 454.316406 512.773438 451.03125 518.136719 447.050781 C 523.203125 443.171875 528.765625 440.183594 534.328125 437 C 538.003906 434.910156 541.777344 432.917969 545.453125 430.828125 C 554.292969 425.855469 563.730469 422.570312 573.960938 422.171875 C 575.847656 422.074219 577.636719 421.875 579.523438 421.773438 C 589.160156 421.078125 598.496094 422.46875 607.238281 426.847656 C 614.09375 430.234375 621.242188 433.117188 628.195312 436.304688 C 635.648438 439.6875 643.59375 441.777344 651.539062 443.964844 C 663.0625 447.152344 674.785156 448.941406 686.503906 450.632812 C 690.972656 451.332031 695.445312 450.832031 699.914062 450.039062 C 702.296875 449.640625 704.582031 449.140625 706.867188 448.34375 C 715.308594 445.359375 724.25 443.765625 732.496094 439.984375 C 733.390625 439.585938 734.582031 439.488281 735.574219 439.488281 C 735.871094 439.488281 736.367188 440.085938 736.566406 440.582031 C 736.765625 441.082031 736.667969 441.675781 736.46875 442.175781 C 735.277344 445.0625 734.085938 448.046875 732.59375 450.832031 C 731.105469 453.71875 728.820312 456.007812 725.738281 457.101562 C 719.980469 458.992188 714.117188 460.785156 708.355469 462.476562 C 706.371094 463.074219 704.183594 463.371094 702.097656 463.570312 C 698.921875 463.871094 695.742188 463.570312 692.664062 464.367188 C 691.769531 465.261719 690.972656 465.066406 689.386719 465.066406 Z M 689.386719 465.066406 " fill-opacity="1" fill-rule="nonzero"/></g><path fill="#000000" d="M 663.957031 373.109375 C 659.386719 373.007812 655.3125 372.015625 651.140625 371.21875 C 641.011719 369.226562 631.277344 365.945312 621.742188 361.863281 C 617.070312 359.871094 612.601562 357.582031 608.726562 354.300781 C 602.96875 349.523438 596.511719 346.140625 589.257812 344.25 C 584.691406 341.761719 579.722656 341.363281 574.65625 340.863281 C 566.710938 340.167969 558.863281 341.164062 551.015625 342.753906 C 549.726562 343.054688 548.535156 343.652344 547.339844 344.148438 C 544.660156 345.34375 542.078125 346.636719 539.394531 347.832031 C 536.910156 348.925781 534.726562 350.21875 532.640625 351.910156 C 531.050781 353.203125 529.164062 354.300781 527.375 355.394531 C 523.503906 357.683594 519.628906 359.972656 516.449219 363.257812 C 516.050781 363.65625 515.65625 364.050781 515.257812 364.25 C 511.183594 365.746094 508.304688 368.929688 504.726562 371.21875 C 501.351562 373.40625 497.773438 374.898438 494.199219 376.792969 C 492.609375 377.6875 491.019531 378.683594 489.429688 379.578125 C 486.253906 381.46875 482.976562 383.0625 479 382.664062 C 476.320312 382.464844 473.738281 383.359375 471.253906 384.253906 C 460.527344 388.136719 449.601562 388.832031 438.375 387.636719 C 435.792969 387.339844 433.210938 386.644531 430.628906 386.046875 C 422.878906 384.15625 415.628906 381.070312 408.574219 377.386719 C 400.429688 373.007812 391.988281 369.226562 383.742188 365.046875 C 380.367188 363.355469 376.890625 362.359375 373.214844 361.566406 C 370.035156 360.96875 366.957031 360.867188 363.777344 361.566406 C 362.484375 361.863281 361.195312 362.0625 359.902344 362.261719 C 354.835938 363.257812 350.367188 365.347656 346.492188 368.730469 C 345.101562 369.925781 343.710938 371.21875 342.320312 372.414062 C 340.535156 374.003906 338.546875 375.296875 336.261719 376.09375 C 330.800781 378.183594 325.832031 381.269531 320.964844 384.355469 C 315.800781 387.539062 310.335938 390.226562 304.972656 393.113281 C 300.105469 394.105469 295.339844 395.800781 290.171875 395.699219 C 285.105469 395.699219 280.140625 395.699219 275.074219 395.800781 C 268.121094 395.898438 261.464844 394.007812 255.109375 391.421875 C 249.746094 389.230469 244.480469 386.644531 239.910156 382.863281 C 237.527344 380.871094 234.648438 379.378906 231.964844 377.6875 C 230.175781 376.59375 228.289062 375.496094 226.601562 374.304688 C 218.457031 368.332031 209.714844 363.457031 201.074219 358.179688 C 199.484375 357.1875 197.796875 356.390625 196.207031 355.492188 C 190.046875 352.011719 183.390625 350.617188 176.339844 350.917969 C 172.664062 351.015625 168.988281 350.917969 165.3125 352.109375 C 162.832031 353.007812 160.347656 353.902344 158.0625 355.292969 C 153.691406 357.78125 149.621094 360.667969 144.949219 362.660156 C 143.558594 363.257812 142.269531 364.351562 141.078125 365.347656 C 138.394531 367.535156 135.8125 369.726562 133.128906 371.816406 C 132.136719 372.609375 130.945312 373.207031 129.753906 373.707031 C 128.066406 374.503906 126.375 375.097656 124.589844 375.796875 C 119.421875 377.886719 114.554688 380.375 110.085938 383.855469 C 108.695312 384.953125 106.90625 385.746094 105.21875 386.542969 C 100.351562 388.632812 95.484375 390.625 90.515625 392.613281 C 86.246094 394.40625 81.675781 394.503906 77.207031 394.40625 C 72.140625 394.304688 67.273438 393.210938 62.40625 391.71875 C 61.214844 391.320312 59.921875 390.625 58.929688 389.828125 C 58.234375 389.230469 57.835938 388.035156 57.441406 387.140625 C 57.140625 386.34375 58.53125 384.851562 59.328125 385.050781 C 62.804688 386.144531 66.28125 387.539062 69.957031 388.234375 C 76.414062 389.332031 82.570312 388.335938 88.628906 385.945312 C 89.324219 385.648438 90.019531 385.152344 90.816406 384.953125 C 99.855469 382.265625 107.503906 376.988281 114.953125 371.515625 C 119.222656 368.429688 123.097656 364.75 127.070312 361.265625 C 129.652344 358.976562 132.238281 356.6875 134.820312 354.398438 C 139.785156 349.921875 145.347656 346.339844 151.308594 343.453125 C 159.054688 339.671875 167.300781 337.878906 175.941406 339.074219 C 178.027344 339.371094 180.214844 339.570312 182.199219 340.070312 C 184.980469 340.765625 187.863281 341.460938 190.542969 342.65625 C 196.304688 345.242188 201.867188 348.230469 207.429688 351.511719 C 218.355469 357.980469 228.785156 365.246094 239.019531 372.808594 C 246.566406 378.382812 255.011719 382.066406 264.148438 384.15625 C 268.519531 385.25 272.890625 386.144531 277.457031 385.746094 C 279.84375 385.546875 282.226562 385.746094 284.609375 385.847656 C 290.769531 386.046875 296.730469 384.953125 302.6875 383.65625 C 308.152344 382.464844 313.21875 380.074219 317.984375 377.1875 C 321.859375 374.898438 325.632812 372.511719 329.507812 370.222656 C 333.582031 367.734375 337.554688 365.148438 341.03125 361.863281 C 345.203125 358.082031 350.070312 355.394531 355.234375 353.203125 C 361.789062 350.417969 368.644531 350.21875 375.5 351.613281 C 378.378906 352.210938 381.160156 353.105469 383.84375 354.101562 C 392.085938 357.085938 400.035156 360.667969 407.582031 365.046875 C 413.742188 368.730469 420.496094 371.117188 427.347656 373.109375 C 436.191406 375.597656 445.128906 375.496094 454.070312 374.003906 C 461.421875 372.808594 468.671875 371.316406 475.921875 369.824219 C 478.007812 369.425781 479.996094 368.628906 481.882812 367.636719 C 489.234375 363.953125 496.484375 360.171875 503.335938 355.59375 C 511.679688 350.019531 520.523438 345.144531 529.164062 340.070312 C 534.429688 336.984375 539.992188 334.496094 545.652344 332.304688 C 551.316406 330.117188 557.472656 329.617188 563.53125 328.921875 C 575.453125 327.527344 586.675781 330.515625 597.503906 335.09375 C 600.1875 336.1875 602.769531 337.679688 604.953125 339.570312 C 611.707031 345.34375 619.953125 348.429688 628.097656 351.613281 C 631.078125 352.808594 634.058594 353.703125 637.039062 354.996094 C 643.992188 357.882812 651.242188 359.277344 658.492188 360.371094 C 663.757812 361.167969 669.023438 361.066406 674.1875 359.078125 C 676.371094 358.179688 678.757812 357.78125 681.042969 357.1875 C 687.496094 355.59375 693.65625 353.304688 699.617188 350.417969 C 701.304688 349.621094 702.894531 348.726562 704.683594 348.03125 C 710.246094 345.742188 714.515625 341.859375 717.695312 336.785156 C 718.984375 334.792969 720.175781 332.804688 721.46875 330.8125 C 721.566406 330.613281 722.066406 330.515625 722.164062 330.613281 C 722.460938 330.914062 722.957031 331.410156 722.859375 331.707031 C 721.46875 336.585938 718.886719 340.964844 716.898438 345.542969 C 715.011719 347.433594 713.324219 349.421875 711.238281 351.015625 C 708.554688 353.203125 705.875 355.195312 703.6875 357.980469 C 702.398438 359.574219 700.410156 360.667969 698.722656 361.863281 C 693.160156 365.644531 687.199219 368.332031 680.347656 368.628906 C 678.757812 368.730469 677.265625 369.226562 675.875 370.125 C 672.101562 372.710938 668.027344 373.507812 663.957031 373.109375 Z M 663.957031 373.109375 " fill-opacity="1" fill-rule="nonzero"/><path fill="#000000" d="M 658.394531 403.460938 C 652.53125 402.765625 646.96875 402.167969 641.605469 400.574219 C 629.191406 396.792969 616.875 392.8125 605.054688 387.539062 C 599.292969 384.953125 593.332031 382.664062 587.769531 379.578125 C 582.703125 376.789062 577.339844 376.09375 571.675781 375.894531 C 567.703125 375.796875 563.730469 376.59375 559.855469 375.597656 C 558.863281 375.296875 557.769531 375.597656 556.679688 375.796875 C 552.507812 376.789062 548.632812 378.183594 544.957031 380.472656 C 541.183594 382.863281 537.210938 385.050781 533.433594 387.441406 C 532.042969 388.234375 530.652344 389.03125 529.660156 390.226562 C 524.496094 396 518.136719 400.277344 512.078125 404.953125 C 510.390625 406.25 508.503906 407.242188 506.515625 407.941406 C 501.25 409.730469 495.988281 411.621094 490.625 413.015625 C 484.265625 414.707031 477.710938 416 471.253906 417.195312 C 465.492188 418.191406 459.632812 418.089844 453.871094 416.898438 C 451.785156 416.5 449.796875 415.902344 447.710938 415.503906 C 444.632812 414.90625 441.554688 413.910156 438.375 413.910156 C 436.785156 413.910156 435.195312 413.613281 433.707031 413.015625 C 429.039062 411.125 424.371094 409.234375 419.898438 407.042969 C 414.238281 404.257812 408.773438 400.875 403.113281 397.988281 C 398.640625 395.699219 394.171875 393.3125 390.101562 390.425781 C 387.617188 388.632812 384.933594 388.035156 382.054688 387.441406 C 374.207031 385.847656 366.757812 387.242188 359.40625 389.429688 C 356.824219 390.226562 354.539062 391.519531 352.453125 393.113281 C 347.984375 396.394531 343.515625 399.78125 339.144531 403.0625 C 337.058594 404.65625 335.070312 406.449219 332.886719 407.941406 C 330.699219 409.433594 328.414062 410.726562 326.132812 412.019531 C 324.34375 413.117188 322.355469 413.910156 320.667969 415.105469 C 316.496094 418.089844 312.027344 420.179688 307.257812 421.875 C 305.570312 422.46875 303.683594 422.96875 301.992188 423.664062 C 297.523438 425.457031 292.953125 426.550781 288.085938 426.054688 C 286.101562 425.855469 283.914062 426.449219 281.828125 426.949219 C 279.246094 427.546875 276.566406 427.746094 273.980469 427.546875 C 270.804688 427.347656 267.625 427.246094 264.445312 426.847656 C 258.289062 426.152344 252.726562 423.464844 247.558594 420.378906 C 241.699219 416.796875 236.039062 412.917969 230.773438 408.339844 C 226.203125 404.359375 220.9375 401.074219 216.765625 396.59375 C 212.496094 393.910156 208.820312 390.523438 204.75 387.539062 C 199.484375 383.855469 193.722656 381.367188 187.066406 381.46875 C 184.1875 381.46875 181.207031 381.269531 178.324219 380.972656 C 172.167969 380.375 166.207031 381.269531 160.445312 383.757812 C 156.574219 385.449219 152.796875 387.441406 149.421875 389.925781 C 144.15625 393.910156 139.089844 398.1875 133.328125 401.472656 C 130.152344 404.757812 126.175781 406.847656 122.800781 409.832031 C 119.917969 412.320312 116.839844 414.210938 113.5625 415.902344 C 109.191406 418.289062 104.722656 420.679688 99.855469 422.070312 C 98.363281 422.570312 96.773438 422.96875 95.1875 423.066406 C 92.007812 423.367188 88.828125 423.664062 85.75 423.464844 C 83.167969 423.265625 80.484375 422.667969 78.101562 421.773438 C 73.132812 419.980469 68.265625 417.992188 63.398438 416 C 62.703125 415.703125 62.109375 415.105469 61.511719 414.609375 C 60.421875 413.710938 59.726562 411.722656 60.320312 411.125 C 61.117188 410.328125 62.207031 410.230469 63.300781 410.429688 C 64.09375 410.527344 64.890625 410.726562 65.585938 410.925781 C 71.644531 413.117188 77.902344 413.710938 84.257812 414.011719 C 87.734375 414.210938 91.113281 413.710938 94.390625 412.71875 C 98.464844 411.421875 102.4375 410.03125 106.3125 408.4375 C 109.191406 407.242188 112.070312 405.75 114.65625 403.960938 C 122.402344 398.882812 129.953125 393.609375 137.996094 388.832031 C 141.871094 386.542969 145.546875 383.957031 149.320312 381.566406 C 151.605469 380.175781 153.988281 379.078125 156.375 377.886719 C 160.445312 375.894531 164.71875 375 169.285156 374.601562 C 175.644531 374.003906 182 374.800781 188.257812 374.601562 C 195.210938 374.402344 201.273438 377.089844 206.636719 381.167969 C 218.257812 389.925781 230.078125 398.386719 242.195312 406.449219 C 245.273438 408.539062 248.554688 410.230469 251.929688 411.820312 C 259.976562 415.800781 268.617188 416.796875 277.359375 416.898438 C 278.453125 416.898438 279.445312 416.699219 280.539062 416.699219 C 291.363281 417.097656 301.296875 413.414062 311.132812 409.234375 C 316 407.144531 320.667969 404.65625 325.433594 402.367188 C 328.8125 400.773438 331.890625 398.683594 334.871094 396.496094 C 340.632812 392.214844 346.492188 388.136719 352.253906 383.957031 C 352.851562 383.457031 353.644531 383.160156 354.339844 382.960938 C 364.871094 379.277344 375.5 378.484375 386.324219 381.070312 C 394.867188 383.0625 402.816406 386.742188 410.5625 390.824219 C 416.421875 394.007812 422.183594 397.09375 428.34375 399.582031 C 431.023438 400.675781 433.707031 401.769531 436.6875 402.070312 C 439.269531 402.367188 441.851562 403.0625 444.433594 403.660156 C 451.984375 405.550781 459.632812 405.453125 467.28125 404.257812 C 475.921875 402.964844 484.367188 400.972656 492.808594 398.683594 C 499.265625 396.992188 505.324219 394.503906 510.589844 390.226562 C 514.5625 387.140625 518.734375 384.355469 523.003906 381.566406 C 527.671875 378.582031 532.539062 375.894531 537.308594 373.109375 C 538.898438 372.214844 540.585938 371.417969 542.175781 370.519531 C 551.214844 365.546875 560.949219 363.554688 571.179688 363.855469 C 577.339844 364.050781 583.101562 365.546875 588.664062 368.53125 C 604.160156 376.691406 620.449219 383.0625 637.234375 387.738281 C 640.015625 388.535156 642.898438 388.933594 645.777344 389.628906 C 651.042969 390.824219 656.109375 390.722656 661.472656 389.730469 C 669.023438 388.335938 676.472656 386.644531 683.921875 384.652344 C 695.445312 381.566406 706.667969 377.6875 716.800781 371.019531 C 721.070312 368.230469 724.945312 365.148438 728.324219 361.367188 C 730.410156 359.078125 732.296875 356.390625 735.078125 354.796875 C 735.277344 354.699219 735.671875 354.597656 735.871094 354.796875 C 736.070312 354.898438 736.167969 355.195312 736.269531 355.492188 C 736.367188 355.992188 736.566406 356.589844 736.367188 356.988281 C 734.878906 360.667969 733.289062 364.351562 731.996094 368.035156 C 730.90625 371.117188 729.019531 373.605469 726.632812 375.796875 C 722.859375 379.179688 718.886719 382.164062 715.410156 385.746094 C 713.820312 387.339844 711.535156 388.535156 709.351562 389.429688 C 700.511719 393.011719 691.769531 396.59375 682.429688 398.785156 C 675.976562 400.277344 669.617188 401.871094 663.0625 402.765625 C 661.175781 403.164062 659.585938 403.363281 658.394531 403.460938 Z M 658.394531 403.460938 " fill-opacity="1" fill-rule="nonzero"/><path fill="#000000" d="M 709.351562 430.632812 C 706.964844 430.929688 704.683594 430.929688 702.398438 429.933594 C 699.914062 428.839844 697.230469 429.039062 694.550781 429.238281 C 690.578125 429.4375 686.605469 429.933594 682.730469 430.234375 C 680.347656 430.433594 677.960938 430.632812 675.578125 430.433594 C 667.132812 429.636719 658.789062 428.738281 650.347656 427.84375 C 648.261719 427.644531 646.175781 427.246094 644.1875 426.449219 C 640.015625 424.757812 635.648438 423.765625 631.175781 422.867188 C 620.449219 420.878906 610.417969 416.597656 600.484375 412.320312 C 599.292969 411.820312 598.097656 411.226562 597.007812 410.429688 C 592.734375 407.242188 587.96875 405.054688 583 403.164062 C 580.019531 402.070312 577.140625 400.574219 574.261719 399.480469 C 573.066406 398.984375 571.675781 398.683594 570.386719 398.785156 C 566.710938 399.082031 563.035156 399.28125 559.558594 400.574219 C 552.109375 403.460938 544.957031 406.945312 539.394531 412.816406 C 536.8125 415.503906 533.832031 417.695312 530.652344 419.683594 C 529.0625 420.679688 527.375 421.574219 525.984375 422.769531 C 519.230469 428.839844 511.285156 433.117188 503.835938 437.996094 C 497.179688 442.273438 489.929688 445.660156 482.082031 447.25 C 478.109375 448.046875 474.234375 448.246094 470.261719 448.246094 C 462.8125 448.144531 455.460938 447.25 448.207031 445.757812 C 443.242188 444.761719 438.671875 442.773438 434.300781 440.285156 C 431.324219 438.59375 428.34375 436.902344 425.363281 435.207031 C 424.171875 434.511719 423.078125 433.914062 421.984375 433.117188 C 413.742188 426.351562 404.304688 421.574219 395.664062 415.304688 C 393.777344 413.910156 391.589844 412.816406 389.601562 411.523438 C 386.921875 409.832031 383.941406 408.738281 380.863281 407.941406 C 377.484375 406.945312 374.207031 407.042969 370.730469 407.839844 C 364.769531 409.234375 359.308594 412.019531 353.644531 414.210938 C 353.148438 414.410156 352.652344 414.609375 352.253906 414.90625 C 347.6875 418.089844 343.015625 421.175781 338.546875 424.359375 C 337.058594 425.457031 335.867188 426.847656 334.574219 428.242188 C 332.191406 430.730469 329.609375 432.917969 326.726562 434.910156 C 322.15625 437.996094 317.785156 441.476562 313.515625 445.0625 C 310.933594 447.152344 308.152344 448.644531 305.074219 449.242188 C 297.324219 450.933594 289.578125 452.324219 281.53125 451.730469 C 271.300781 450.933594 261.765625 448.34375 252.925781 443.171875 C 246.964844 439.6875 240.90625 436.402344 235.640625 432.023438 C 235.242188 431.726562 234.84375 431.328125 234.347656 431.128906 C 227.992188 427.84375 222.527344 423.066406 216.371094 419.484375 C 212.792969 417.296875 209.8125 414.210938 206.039062 412.21875 C 204.152344 411.226562 202.265625 410.328125 200.476562 409.234375 C 196.007812 406.546875 190.84375 406.648438 185.976562 405.550781 C 182.796875 406.050781 179.714844 406.347656 176.636719 407.042969 C 174.054688 407.640625 171.570312 408.539062 168.890625 408.636719 C 167.398438 408.738281 165.710938 409.234375 164.320312 409.929688 C 157.464844 413.414062 150.710938 416.898438 143.957031 420.480469 C 142.367188 421.375 140.878906 422.570312 139.289062 423.566406 C 134.324219 426.648438 129.554688 429.933594 124.390625 432.722656 C 120.914062 434.613281 117.136719 435.804688 113.464844 437.296875 C 110.78125 438.394531 107.898438 439.191406 105.21875 440.183594 C 100.449219 441.976562 95.683594 443.269531 90.515625 442.074219 C 89.722656 441.875 88.929688 441.875 88.132812 441.875 C 79.988281 442.574219 72.539062 439.785156 65.089844 436.902344 C 61.511719 435.507812 59.128906 432.621094 56.148438 430.433594 C 54.164062 428.9375 52.96875 426.949219 51.976562 424.757812 C 51.777344 424.359375 51.976562 423.765625 52.175781 423.367188 C 52.375 422.769531 52.871094 422.667969 53.46875 422.96875 C 54.164062 423.265625 54.859375 423.664062 55.554688 424.0625 C 61.117188 427.046875 66.777344 429.933594 73.035156 431.425781 C 79.292969 432.917969 85.550781 433.617188 91.90625 433.714844 C 93.695312 433.714844 95.582031 433.21875 97.371094 432.722656 C 108.992188 429.636719 119.421875 423.964844 129.257812 417.097656 C 139.289062 410.230469 149.917969 404.257812 161.339844 399.78125 C 166.503906 397.789062 171.769531 396 177.332031 395.101562 C 179.417969 394.703125 181.503906 394.804688 183.589844 395.003906 C 191.933594 395.699219 199.582031 398.386719 206.535156 403.0625 C 212 406.746094 217.5625 410.429688 223.023438 414.011719 C 232.164062 419.882812 241.203125 425.855469 250.441406 431.527344 C 256.996094 435.507812 264.050781 438.492188 271.996094 438.890625 C 280.140625 441.082031 288.285156 439.785156 296.429688 438.394531 C 300.304688 437.695312 304.078125 436.402344 307.753906 434.8125 C 315.800781 431.328125 323.152344 426.550781 330.402344 421.773438 C 334.574219 417.59375 339.9375 415.207031 344.605469 411.722656 C 350.964844 406.847656 358.511719 404.160156 365.960938 401.371094 C 371.625 399.28125 377.386719 399.78125 383.046875 401.871094 C 388.511719 403.960938 393.675781 406.746094 398.445312 410.03125 C 403.707031 413.613281 408.875 417.296875 414.4375 420.378906 C 415.828125 421.175781 417.117188 422.171875 418.308594 423.066406 C 422.78125 426.449219 427.746094 428.9375 432.8125 431.226562 C 434.996094 432.222656 437.28125 432.917969 439.566406 433.417969 C 449.5 435.308594 459.433594 436.304688 469.566406 436.003906 C 477.710938 435.804688 485.160156 433.417969 492.609375 430.433594 C 501.25 427.046875 509.398438 422.570312 517.046875 417.394531 C 521.414062 414.410156 525.886719 411.621094 530.257812 408.636719 C 533.335938 406.546875 536.214844 404.257812 539.296875 402.167969 C 544.757812 398.386719 550.222656 394.804688 556.578125 392.515625 C 561.746094 390.625 567.007812 390.324219 572.175781 392.015625 C 580.417969 394.804688 588.664062 397.691406 595.816406 402.964844 C 598.597656 404.953125 601.773438 406.25 604.953125 407.742188 C 616.179688 412.816406 628 415.40625 639.917969 417.890625 C 641.210938 418.191406 642.5 418.289062 643.890625 418.289062 C 653.128906 418.289062 662.367188 419.785156 671.503906 420.578125 C 674.882812 420.878906 678.359375 421.175781 681.835938 421.277344 C 691.96875 421.675781 701.902344 420.878906 711.734375 418.488281 C 719.480469 416.699219 727.128906 414.90625 734.679688 412.21875 C 741.535156 409.832031 747.890625 406.847656 753.652344 402.46875 C 754.25 401.96875 754.945312 401.570312 755.640625 401.074219 C 757.128906 400.179688 759.8125 401.472656 759.910156 403.261719 C 760.007812 405.652344 760.007812 408.039062 759.8125 410.328125 C 759.710938 411.921875 758.816406 413.414062 757.425781 414.308594 C 752.859375 417.496094 748.488281 420.976562 743.222656 422.867188 C 735.472656 425.65625 727.726562 428.34375 719.679688 429.835938 C 718.089844 430.132812 716.601562 430.632812 715.011719 430.730469 C 713.027344 430.730469 711.238281 430.632812 709.351562 430.632812 Z M 709.351562 430.632812 " fill-opacity="1" fill-rule="nonzero"/></svg>